<?xml version="1.0" encoding="UTF-8" standalone="no"?>
<svg
   xmlns:dc="http://purl.org/dc/elements/1.1/"
   xmlns:cc="http://creativecommons.org/ns#"
   xmlns:rdf="http://www.w3.org/1999/02/22-rdf-syntax-ns#"
   xmlns:svg="http://www.w3.org/2000/svg"
   xmlns="http://www.w3.org/2000/svg"
   xmlns:sodipodi="http://sodipodi.sourceforge.net/DTD/sodipodi-0.dtd"
   xmlns:inkscape="http://www.inkscape.org/namespaces/inkscape"
   id="SvgjsSvg1001"
   width="234.66667"
   height="234.66667"
   version="1.1"
   sodipodi:docname="logo.svg"
   inkscape:version="0.92.4 (5da689c313, 2019-01-14)">
  <metadata
     id="metadata4584">
    <rdf:RDF>
      <cc:Work
         rdf:about="">
        <dc:format>image/svg+xml</dc:format>
        <dc:type
           rdf:resource="http://purl.org/dc/dcmitype/StillImage" />
        <dc:title></dc:title>
      </cc:Work>
    </rdf:RDF>
  </metadata>
  <defs
     id="defs4582" />
  <sodipodi:namedview
     pagecolor="#ffffff"
     bordercolor="#666666"
     borderopacity="1"
     objecttolerance="10"
     gridtolerance="10"
     guidetolerance="10"
     inkscape:pageopacity="0"
     inkscape:pageshadow="2"
     inkscape:window-width="2560"
     inkscape:window-height="1377"
     id="namedview4580"
     showgrid="false"
     fit-margin-top="0"
     fit-margin-left="0"
     fit-margin-right="0"
     fit-margin-bottom="0"
     inkscape:zoom="0.921875"
     inkscape:cx="-183.0565"
     inkscape:cy="-115.66667"
     inkscape:window-x="1912"
     inkscape:window-y="2152"
     inkscape:window-maximized="1"
     inkscape:current-layer="SvgjsG1008" />
  <g
     id="SvgjsG1008"
     transform="translate(-10.666666,-10.666666)">
    <svg
       viewBox="0 0 24 24"
       width="256"
       height="256"
       version="1.1"
       id="svg4576">
      <path
         d="M 6,23 H 2 A 0.99974,0.99974 0 0 1 1,22 v -8 a 0.99974,0.99974 0 0 1 1,-1 h 4 a 0.99974,0.99974 0 0 1 1,1 v 8 a 0.99974,0.99974 0 0 1 -1,1 z"
         class="colord8d8ff svgShape"
         data-darkreader-inline-fill=""
         style="fill:#3f2585"
         id="path4570"
         inkscape:connector-curvature="0" />
      <path
         d="M 14,23 H 10 A 0.99974,0.99974 0 0 1 9,22 V 2 a 0.99974,0.99974 0 0 1 1,-1 h 4 a 0.99974,0.99974 0 0 1 1,1 v 20 a 0.99974,0.99974 0 0 1 -1,1 z"
         class="color6563ff svgShape"
         data-darkreader-inline-fill=""
         style="fill:#7048e8"
         id="path4572"
         inkscape:connector-curvature="0" />
      <path
         d="M 22,23 H 18 A 0.99974,0.99974 0 0 1 17,22 V 10 a 0.99974,0.99974 0 0 1 1,-1 h 4 a 0.99974,0.99974 0 0 1 1,1 v 12 a 0.99974,0.99974 0 0 1 -1,1 z"
         class="colorb2b1ff svgShape"
         data-darkreader-inline-fill=""
         style="fill:#9d96d9"
         id="path4574"
         inkscape:connector-curvature="0" />
    </svg>
  </g>
</svg>
